<svg xmlns="http://www.w3.org/2000/svg" xmlns:xlink="http://www.w3.org/1999/xlink" viewBox="0 0 443.54 411.26"><defs><style>.cls-1{fill:none;}.cls-2,.cls-3{fill:#182b33;}.cls-3{opacity:0.5;}.cls-4{clip-path:url(#clip-path);}</style><clipPath id="clip-path" transform="translate(45 -24.73)"><path class="cls-1" d="M373.2,227.79C317,363.5,205,413.24,108.8,373.38S-31.38,219.17,24.85,83.45c2.2-5.32,3.79-9,5.39-12.38C80-35.11,146.56-.32,238.48,35.22S427.13,97.65,373.2,227.79Z"/></clipPath></defs><g id="Layer_2" data-name="Layer 2"><g id="Egg_Dark" data-name="Egg Dark"><g id="Droplet_copy" data-name="Droplet copy"><ellipse class="cls-2" cx="332.06" cy="366.06" rx="11.88" ry="6.58"/></g><g id="Knockout_Group_copy" data-name="Knockout Group copy"><path id="Shellback" class="cls-3" d="M60.58,27.19c-12.14,12.79,13.94,93,56.94,128.06,50.45,41.09,122,49.19,156.47,43,9.71-1.73,19.78-5.17,36-3.92,21.53,1.67,38.47,10.4,49.13,4.55a89.53,89.53,0,0,0,16.54-12.27c.7-.68,1.2-1.18,1.9-1.92,5.73-6,11.66-16,8.82-18.83-2.59-2.61-10,1.38-18.78,4.23-22.18,7.22-42.75,2.81-58.76-1.14-37.59-9.26-32.36-35.45-67.73-48.65-39-14.55-62.9,10.88-89.49-8.64a54.36,54.36,0,0,1-9.54-8.75C130,88.61,123.84,82.31,119.47,75.19,106.36,53.85,69.85,17.43,60.58,27.19Z" transform="translate(45 -24.73)"/><g id="ShellFront"><g class="cls-4"><path id="EggPath" class="cls-2" d="M235.09,92.89c-11.52-3-15.36,16.8-47,28-12.19,4.3-19.24,4.67-29.88,12.06-12,8.34-13,18.21-17.63,17.63-6-.75-11.66-13.2-17.27-48.75a104.51,104.51,0,0,0-3.62-15.45c-3.06-9.87-6.32-18.49-9.12-23.4C108,59.15,78.85,19.26,56.7,25.36,44.4,28.75,35.53,48.92,21.56,90.6c-4.27,12.75-8.78,23-10.37,30.55-12.87,9.94-31.45,27.41-43.78,54.46-31.06,68.11,5.38,135.86,10.4,144.85,31,62.61,92.29,88,112.57,96.38,17.51,7.26,81.22,31.29,147.75,11.48,86.3-25.7,152.26-116.39,160-234.36.1-1.55,2.44-28.39-5.5-31-6.15-2-11.39,12.74-29.88,19.26-10.53,3.71-15.27,1.19-20.58,3a19.24,19.24,0,0,0-4.41,2.47c-9.39,6.5-8.57,14.75-17.32,23a34.21,34.21,0,0,1-6.92,5h0a17.13,17.13,0,0,0-1.93,1.72c-8.46,8.88-8.41,26.9-8.41,26.9,0,14.34,3.95,19.9.65,30.2-1.51,4.72-3.45,6.95-5.69,8.17-4,2.16-9.81,1.54-13-1.86s-2.71-8.65-2.23-12.43a30,30,0,0,1,1.46-5.72,80.33,80.33,0,0,1,5.22-12.1c3.54-7.4,2.69-23.61-5.41-32-3.19-3.29-4.85-2.72-8.43-5.42-11.37-8.59-10.81-27-11.37-33.18C263.84,174.32,256.62,98.45,235.09,92.89Z" transform="translate(45 -24.73)"/></g></g></g></g></g></svg>