<svg id="Layer_1" data-name="Layer 1" xmlns="http://www.w3.org/2000/svg" xmlns:xlink="http://www.w3.org/1999/xlink" viewBox="0 0 425.2 425.2"><defs><style>.cls-1{fill:none;}.cls-2{fill:#aad9dd;}.cls-3{fill:#d1eaec;}.cls-4{clip-path:url(#clip-path);}.cls-5{fill:#fdfdf5;}.cls-6{fill:#daeef0;}.cls-7{fill:#30a37f;}.cls-8{clip-path:url(#clip-path-2);}.cls-9{fill:#fff;opacity:0.22;}.cls-10{fill:#0d6259;}.cls-11{fill:#72b8b0;}</style><clipPath id="clip-path"><path id="Sky" class="cls-1" d="M60,336.48c-9.36-15-30.82-53.71-28.5-106.13,3-67.15,43-111,59.43-126.74C140.86,56,231,23,304.41,62.37,387,106.61,392.81,212.47,394.16,237c2.54,45.87-8.56,83.18-17.58,106.13"/></clipPath><clipPath id="clip-path-2"><path id="GrasTop" class="cls-1" d="M-41.27,348c-.26-9.66,138.31-22.76,245.61-23.65,162.23-1.36,329.13,24.54,328.4,35.47C531.39,380-40.76,367.59-41.27,348Z"/></clipPath></defs><g id="Sky-2" data-name="Sky"><path id="Sky-3" data-name="Sky" class="cls-2" d="M60,336.48c-9.36-15-30.82-53.71-28.5-106.13,3-67.15,43-111,59.43-126.74C140.86,56,231,23,304.41,62.37,387,106.61,392.81,212.47,394.16,237c2.54,45.87-8.56,83.18-17.58,106.13"/><path id="SkyBrightness" class="cls-3" d="M118.74,334.92c-6.17-6.24-20.29-22.39-18.77-44.24,2-28,28.28-46.29,39.13-52.84C172,218,231.29,204.25,279.64,220.65c54.35,18.45,58.2,62.57,59.09,72.81,1.67,19.12-5.63,34.67-11.58,44.24"/><g class="cls-4"><g id="Clouds"><g id="Group_559" data-name="Group 559"><path id="Path_205" data-name="Path 205" class="cls-5" d="M271.63,148.27c0-.06,0-.11,0-.16a17.64,17.64,0,0,1,17.63-17.62,17.45,17.45,0,0,1,6.54,1.26,22.86,22.86,0,0,1,42.42,6.81,12.84,12.84,0,0,1,14.34,9.71Z"/><path id="Path_206" data-name="Path 206" class="cls-6" d="M288.82,148.27v-.09a10.15,10.15,0,0,1,13.9-9.41,13.14,13.14,0,0,1,24.39,3.92,7.56,7.56,0,0,1,1.06-.08,7.39,7.39,0,0,1,7.19,5.66Z"/></g><g id="Group_559-2" data-name="Group 559"><path id="Path_205-2" data-name="Path 205" class="cls-5" d="M357.14,296.83v-.12a12.42,12.42,0,0,1,17-11.53,16.12,16.12,0,0,1,29.91,4.8,9.06,9.06,0,0,1,10.11,6.85Z"/><path id="Path_206-2" data-name="Path 206" class="cls-6" d="M369.27,296.83v-.07a7.14,7.14,0,0,1,7.14-7.14,7.06,7.06,0,0,1,2.65.51,9.27,9.27,0,0,1,17.2,2.76,6.3,6.3,0,0,1,.75-.05,5.22,5.22,0,0,1,5.07,4Z"/></g><g id="Group_559-3" data-name="Group 559"><path id="Path_205-3" data-name="Path 205" class="cls-5" d="M26.42,188.9v-.11a12.42,12.42,0,0,1,12.43-12.42,12.55,12.55,0,0,1,4.61.88,16.12,16.12,0,0,1,29.91,4.81,9.05,9.05,0,0,1,10.11,6.84Z"/><path id="Path_206-3" data-name="Path 206" class="cls-6" d="M38.55,188.9v-.06a7.14,7.14,0,0,1,7.14-7.14,7.06,7.06,0,0,1,2.65.51A9.27,9.27,0,0,1,65.54,185a4.74,4.74,0,0,1,.75-.06,5.22,5.22,0,0,1,5.07,4H38.55Z"/></g></g></g></g><g id="GrasTop-2" data-name="GrasTop"><path id="GrasTop-3" data-name="GrasTop" class="cls-7" d="M-41.27,348c-.26-9.66,138.31-22.76,245.61-23.65,162.23-1.36,329.13,24.54,328.4,35.47C531.39,380-40.76,367.59-41.27,348Z"/><g class="cls-8"><path id="GrasTop-4" data-name="GrasTop" class="cls-9" d="M51.24,365.34c-.19-7.13,102.22-16.81,181.51-17.48,119.88-1,243.22,18.14,242.68,26.22C474.43,389,51.63,379.81,51.24,365.34Z"/></g></g><g id="Gras"><ellipse class="cls-10" cx="95.91" cy="346.93" rx="1.96" ry="0.75"/><path class="cls-11" d="M95.83,347.16c-6.21-12.7-10.91-18.61-20.13-29.32"/><path class="cls-11" d="M95.83,347.16c-1.87-2.4-3.52-4.87-5.17-7.31s-3.31-4.86-5-7.25-3.42-4.76-5.11-7.2a84.68,84.68,0,0,1-4.85-7.56,56.6,56.6,0,0,1,6.66,6.08,61,61,0,0,1,5.75,6.95,54.14,54.14,0,0,1,4.57,7.82A45.81,45.81,0,0,1,95.83,347.16Z"/><path class="cls-11" d="M96,347.38c-4.22-14.5-5.62-24-4.11-38"/><path class="cls-11" d="M96,347.38a55,55,0,0,1-3.59-9.05,57,57,0,0,1-2-9.55,49.3,49.3,0,0,1-.23-9.79,44,44,0,0,1,1.76-9.59c.28,3.25.39,6.44.59,9.61s.48,6.29.86,9.41.87,6.24,1.35,9.39S95.75,344.12,96,347.38Z"/><path class="cls-11" d="M95.83,347.16c4.76-10.5,4.5-17.76,11.58-26.62"/><path class="cls-11" d="M95.83,347.16c.43-2.48,1-4.82,1.52-7.18s1.15-4.7,1.92-7a30.86,30.86,0,0,1,3.12-6.82,21.24,21.24,0,0,1,5-5.58c-1,2.3-2,4.45-2.92,6.65s-1.62,4.42-2.37,6.69C100.62,338.4,99,343.21,95.83,347.16Z"/><ellipse class="cls-11" cx="95.93" cy="346.86" rx="1.5" ry="0.6"/><ellipse class="cls-10" cx="355.33" cy="367.31" rx="1.96" ry="0.75"/><path class="cls-11" d="M354.52,367.37c6.21-12.69,0-11.78,9.22-22.5"/><path class="cls-11" d="M354.52,367.37c.31-2.13.85-4.1,1.2-6.06s.53-3.81.77-5.93a13.2,13.2,0,0,1,.84-3.28,12.1,12.1,0,0,1,.76-1.53c.29-.47.61-.93.93-1.38a19.19,19.19,0,0,1,4.72-4.32c-.84,2-1.89,3.76-2.71,5.55a16.32,16.32,0,0,0-1.57,5.37c-.13,1-.27,2-.5,3.1a19.66,19.66,0,0,1-1,3.1A18.85,18.85,0,0,1,354.52,367.37Z"/><path class="cls-11" d="M355.85,367.89c-2.17-12.18-2.9-20.18-2.12-31.91"/><path class="cls-11" d="M355.85,367.89a44.92,44.92,0,0,1-2.44-7.75,55.63,55.63,0,0,1-1.2-8,50.15,50.15,0,0,1,0-8.13,40.06,40.06,0,0,1,1.48-8c.45,2.71.66,5.37.88,8l.59,7.9c.19,2.62.39,5.26.54,7.91A80.35,80.35,0,0,1,355.85,367.89Z"/><path class="cls-11" d="M355.54,367.48c-4.77-10.5-4.74-12.84-11.81-21.7"/><path class="cls-11" d="M355.54,367.48c-2.81-3.27-4.59-7.11-6.34-10.71-.88-1.8-1.79-3.55-2.75-5.35a57.77,57.77,0,0,1-2.72-5.64,24.28,24.28,0,0,1,4.67,4.32,25.71,25.71,0,0,1,3.49,5.36,40,40,0,0,1,2.24,5.87A39.33,39.33,0,0,1,355.54,367.48Z"/><ellipse class="cls-11" cx="355.41" cy="367.33" rx="1.5" ry="0.6"/></g></svg>