<svg xmlns="http://www.w3.org/2000/svg" xmlns:xlink="http://www.w3.org/1999/xlink" viewBox="0 0 1645.99 415.14"><defs><style>.cls-1,.cls-2{fill:none;}.cls-2{clip-path:url(#clip-path);}.cls-3{opacity:0.25;}.cls-4,.cls-5,.cls-7{fill:#182b33;}.cls-5{opacity:0.5;isolation:isolate;}.cls-6{clip-path:url(#clip-path-2);}.cls-7{font-size:140px;font-family:OmnesPro-SemiboldItalic, Omnes Pro;font-weight:600;font-style:italic;}.cls-8{letter-spacing:0em;}.cls-9{letter-spacing:0em;}.cls-10{letter-spacing:-0.01em;}</style><clipPath id="clip-path"><path class="cls-1" d="M373.21,349.59C317,485.31,205,535,108.8,495.19S-31.38,341,24.85,205.25c2.2-5.31,3.79-8.95,5.39-12.38C80,86.69,146.56,121.49,238.48,157S427.13,219.45,373.21,349.59Z"/></clipPath><clipPath id="clip-path-2" transform="translate(45.01 -142.65)"><path class="cls-2" d="M373.21,349.59C317,485.31,205,535,108.8,495.19S-31.38,341,24.85,205.25c2.2-5.31,3.79-8.95,5.39-12.38C80,86.69,219.34-29,311.26,6.55S427.13,219.45,373.21,349.59Z"/></clipPath></defs><g id="Layer_2" data-name="Layer 2"><g id="Layer_1-2" data-name="Layer 1"><g id="text_left_bold_black"><g id="EggShahadow" class="cls-3"><ellipse class="cls-4" cx="212.08" cy="369.87" rx="84.28" ry="15.8"/></g><g id="Egg"><g id="Droplet"><ellipse class="cls-4" cx="332.08" cy="369.94" rx="11.88" ry="6.58"/></g><g id="Knockout_Group" data-name="Knockout Group"><path id="Shellback" class="cls-5" d="M60.59,149c-12.14,12.79,13.93,93,56.94,128.06,50.44,41.09,122,49.19,156.46,43,9.71-1.73,19.78-5.17,36-3.92,21.53,1.66,38.47,10.4,49.13,4.55a89.12,89.12,0,0,0,16.54-12.27c.7-.68,1.2-1.18,1.9-1.91,5.74-6,11.66-16,8.82-18.84-2.59-2.6-10,1.38-18.78,4.24-22.18,7.21-42.75,2.81-58.77-1.14-37.59-9.27-32.35-35.45-67.73-48.65-39-14.55-62.9,10.88-89.48-8.64a54,54,0,0,1-9.54-8.75C130,210.43,123.84,204.13,119.47,197,106.37,175.65,69.86,139.23,60.59,149Z" transform="translate(45.01 -142.65)"/><g id="ShellFront"><g class="cls-6"><path id="EggPath" class="cls-4" d="M235.09,214.69c-11.51-3-15.36,16.8-47,28-12.19,4.3-19.24,4.67-29.88,12.06-12,8.34-13,18.21-17.63,17.63-6-.75-11.66-13.2-17.27-48.75a105.84,105.84,0,0,0-3.62-15.45c-3.07-9.87-6.32-18.49-9.12-23.4-2.6-3.8-31.71-43.68-53.86-37.58-12.31,3.39-21.17,23.57-35.14,65.25-4.27,12.74-8.78,23-10.37,30.55-12.87,9.94-31.45,27.41-43.79,54.45-31.06,68.11,5.38,135.86,10.41,144.86,31,62.6,92.28,88,112.57,96.38,17.51,7.25,81.22,31.29,147.75,11.48,86.3-25.7,152.26-116.39,160-234.36.1-1.55,2.44-28.39-5.5-31-6.14-2-11.39,12.74-29.88,19.26-10.53,3.71-15.26,1.19-20.58,3a19.36,19.36,0,0,0-4.41,2.48c-9.39,6.5-8.57,14.75-17.32,23a34,34,0,0,1-6.92,5h0a18.38,18.38,0,0,0-1.93,1.72c-8.46,8.88-8.41,26.91-8.41,26.91,0,14.34,4,19.9.65,30.2-1.51,4.72-3.45,6.95-5.69,8.16-4,2.16-9.81,1.54-13-1.86s-2.71-8.65-2.23-12.43a29.57,29.57,0,0,1,1.45-5.72,80.18,80.18,0,0,1,5.23-12.1c3.54-7.4,2.69-23.62-5.42-32-3.19-3.29-4.85-2.72-8.42-5.42-11.37-8.59-10.81-27-11.37-33.17C263.84,296.12,256.62,220.25,235.09,214.69Z" transform="translate(45.01 -142.65)"/></g></g></g></g><text class="cls-7" transform="translate(524.77 221.17)"><tspan class="cls-8">m</tspan><tspan class="cls-9" x="124.46" y="0">yregional</tspan><tspan class="cls-10" x="733.87" y="0">f</tspan><tspan x="786.37" y="0">ood</tspan></text></g></g></g></svg>