<svg xmlns="http://www.w3.org/2000/svg" xmlns:xlink="http://www.w3.org/1999/xlink" viewBox="0 0 453.5 421.26"><defs><style>.cls-1{fill:none;}.cls-2,.cls-3{fill:#fff;}.cls-3{opacity:0.5;}.cls-4{clip-path:url(#clip-path);}.cls-5{opacity:0;}.cls-6{fill:#ffde00;}</style><clipPath id="clip-path" transform="translate(49.97 -19.73)"><path class="cls-1" d="M373.2,227.79C317,363.5,205,413.24,108.8,373.38S-31.38,219.17,24.85,83.45c2.2-5.32,3.79-9,5.39-12.38C80-35.11,146.56-.32,238.48,35.22S427.13,97.65,373.2,227.79Z"/></clipPath></defs><g id="Layer_2" data-name="Layer 2"><g id="Egg"><g id="Droplet"><ellipse class="cls-2" cx="337.03" cy="371.06" rx="11.88" ry="6.58"/></g><g id="Knockout_Group" data-name="Knockout Group"><path id="Shellback" class="cls-3" d="M60.58,27.19c-12.14,12.79,13.94,93,56.94,128.06,50.45,41.09,122,49.19,156.47,43,9.71-1.73,19.78-5.17,36-3.92,21.53,1.67,38.47,10.4,49.13,4.55a89.53,89.53,0,0,0,16.54-12.27c.7-.68,1.2-1.18,1.9-1.92,5.73-6,11.66-16,8.82-18.83-2.59-2.61-10,1.38-18.78,4.23-22.18,7.22-42.75,2.81-58.76-1.14-37.59-9.26-32.36-35.45-67.73-48.65-39-14.55-62.9,10.88-89.49-8.64a54.36,54.36,0,0,1-9.54-8.75C130,88.61,123.84,82.31,119.47,75.19,106.36,53.85,69.85,17.43,60.58,27.19Z" transform="translate(49.97 -19.73)"/><g id="ShellFront"><g class="cls-4"><g id="EggPath"><path class="cls-2" d="M235.09,92.89c-11.52-3-15.36,16.8-47,28-12.19,4.3-19.24,4.67-29.88,12.06-12,8.34-13,18.21-17.63,17.63-6-.75-11.66-13.2-17.27-48.75a104.51,104.51,0,0,0-3.62-15.45c-3.06-9.87-6.32-18.49-9.12-23.4C108,59.15,78.85,19.26,56.7,25.36,44.4,28.75,35.53,48.92,21.56,90.6c-4.27,12.75-8.78,23-10.37,30.55-12.87,9.94-31.45,27.41-43.78,54.46-31.06,68.11,5.38,135.86,10.4,144.85,31,62.61,92.29,88,112.57,96.38,17.51,7.26,81.22,31.29,147.75,11.48,86.3-25.7,152.26-116.39,160-234.36.1-1.55,2.44-28.39-5.5-31-6.15-2-11.39,12.74-29.88,19.26-10.53,3.71-15.27,1.19-20.58,3a19.24,19.24,0,0,0-4.41,2.47c-9.39,6.5-8.57,14.75-17.32,23a34.21,34.21,0,0,1-6.92,5h0a17.13,17.13,0,0,0-1.93,1.72c-8.46,8.88-8.41,26.9-8.41,26.9,0,14.34,3.95,19.9.65,30.2-1.51,4.72-3.45,6.95-5.69,8.17-4,2.16-9.81,1.54-13-1.86s-2.71-8.65-2.23-12.43a30,30,0,0,1,1.46-5.72,80.33,80.33,0,0,1,5.22-12.1c3.54-7.4,2.69-23.61-5.41-32-3.19-3.29-4.85-2.72-8.43-5.42-11.37-8.59-10.81-27-11.37-33.18C263.84,174.32,256.62,98.45,235.09,92.89Z" transform="translate(49.97 -19.73)"/><g class="cls-5"><path class="cls-6" d="M61.5,24.73c21.34,0,46.65,34.68,49.06,38.21,2.8,4.91,6.06,13.53,9.12,23.4a106.18,106.18,0,0,1,3.63,15.45c5.6,35.55,11.27,48,17.26,48.75a2.55,2.55,0,0,0,.39,0c4.34,0,5.57-9.55,17.24-17.65,10.64-7.39,17.69-7.76,29.88-12.06,29.48-10.4,34.83-28.26,44.73-28.26a9.28,9.28,0,0,1,2.28.3c21.53,5.56,28.75,81.43,29.25,87.09.56,6.22,0,24.59,11.37,33.18,3.58,2.7,5.24,2.13,8.43,5.42,8.1,8.38,8.95,24.59,5.41,32a80.33,80.33,0,0,0-5.22,12.1,30,30,0,0,0-1.46,5.72c-.48,3.78-1.12,8.92,2.23,12.43a10.82,10.82,0,0,0,7.82,3.12,11,11,0,0,0,5.23-1.26c2.24-1.22,4.18-3.45,5.69-8.17,3.3-10.3-.62-15.86-.65-30.2,0,0-.05-18,8.41-26.9a17.13,17.13,0,0,1,1.93-1.72h0a34.21,34.21,0,0,0,6.92-5c8.75-8.26,7.93-16.51,17.32-23a19.24,19.24,0,0,1,4.41-2.47c5.31-1.78,10.05.74,20.58-3,17.31-6.1,23-19.45,28.72-19.45a3.66,3.66,0,0,1,1.16.19c7.94,2.62,5.6,29.46,5.5,31-7.75,118-73.71,208.66-160,234.36A190,190,0,0,1,183.82,436c-44.29,0-80.84-13.92-93.44-19.14-20.28-8.4-81.53-33.77-112.57-96.38-5-9-41.46-76.74-10.4-144.85,12.33-27.05,30.91-44.52,43.78-54.46,1.59-7.56,6.1-17.8,10.37-30.55,14-41.68,22.84-61.85,35.14-65.24a18.08,18.08,0,0,1,4.8-.63m0-5v0a22.54,22.54,0,0,0-6.12.81C40.67,24.59,31.59,44.94,16.82,89c-1.58,4.72-3.17,9-4.7,13.16a167.3,167.3,0,0,0-5.4,16.12c-19.36,15.28-34.11,33.86-43.86,55.23-31.08,68.16,3.16,136,10.53,149.26C5.28,387,67.88,412.94,88.47,421.46c17.59,7.29,53.38,19.52,95.35,19.52a190.08,190.08,0,0,0,117.64-39.54,231.73,231.73,0,0,0,50.23-52.84c29.84-42.92,47.62-96.28,51.44-154.31l0-.26a117.79,117.79,0,0,0,.19-16.37c-.47-7.21-1.94-17.08-9.13-19.46a8.81,8.81,0,0,0-2.73-.44c-4.42,0-7.7,3.2-11.49,6.91-4.39,4.29-9.86,9.64-18.9,12.82a32.48,32.48,0,0,1-12.26,1.94,24.77,24.77,0,0,0-8.24,1,23.71,23.71,0,0,0-5.67,3.1c-6.06,4.19-8.66,9.15-10.95,13.53-1.81,3.45-3.52,6.71-7,10a29.64,29.64,0,0,1-5.92,4.29l-.3.16-.27.21A21.71,21.71,0,0,0,308,214c-9.73,10.21-9.79,29.55-9.79,30.36a95.58,95.58,0,0,0,1.22,14.4c.79,5.5,1.32,9.12-.33,14.27-1.36,4.24-2.78,5-3.31,5.29a6.15,6.15,0,0,1-2.85.66,5.84,5.84,0,0,1-4.2-1.57c-1.72-1.8-1.26-5.43-.89-8.35a25.56,25.56,0,0,1,1.24-4.78,65,65,0,0,1,4.15-9.81c.31-.62.59-1.18.84-1.7,4.16-8.68,3.76-27.2-6.33-37.63a18.25,18.25,0,0,0-6.07-4.23,15.27,15.27,0,0,1-2.94-1.7c-8.1-6.12-8.82-19.45-9.2-26.61-.07-1.16-.12-2.16-.2-3a382.19,382.19,0,0,0-6.84-44.24c-6.48-28.92-15-44.38-26.14-47.25a13.91,13.91,0,0,0-3.53-.46c-6.17,0-10.59,4.18-15.71,9-6.19,5.86-14.66,13.87-30.69,19.52-3.38,1.2-6.34,2.07-9.2,2.92-7.31,2.16-13.62,4-21.86,9.75a48.87,48.87,0,0,0-13.26,14.07c-.5.74-1.07,1.59-1.54,2.21-.85-.84-2.47-3.05-4.47-8.7-2.7-7.64-5.34-19.54-7.84-35.37a111,111,0,0,0-3.78-16.15c-2.38-7.66-6-18.11-9.55-24.39l-.1-.18-.12-.17c-.28-.4-27.92-40.39-53.19-40.39Z" transform="translate(49.97 -19.73)"/></g></g></g></g></g></g></g></svg>