<svg id="Layer_1" data-name="Layer 1" xmlns="http://www.w3.org/2000/svg" viewBox="0 0 1080 1920"><defs><style>.cls-1{fill:#f9edc1;}.cls-2{fill:#fff4c5;}.cls-3{fill:#30a37f;}.cls-4{fill:#0b6259;}.cls-5{fill:#f9ca62;}.cls-6{fill:#fece65;}.cls-7{fill:#fdfdf5;}.cls-8{fill:#ed6d63;}.cls-9{fill:#ed6e66;}.cls-10,.cls-11,.cls-12,.cls-13{fill:none;}.cls-10,.cls-11{stroke:#fece65;}.cls-10{stroke-width:2px;}.cls-12,.cls-13{stroke:#fff4c5;}.cls-12{stroke-miterlimit:4;}</style></defs><g id="Bushes"><path id="Path_113" data-name="Path 113" class="cls-1" d="M280.46,1632.56a221.72,221.72,0,0,0,7.12-27.8q1.83-9.65,2.87-19.69c-3.54-1.55-7.39-.26-11.06.67s-8,1.42-11.12-1.73c-4.72-4.8-5.26-16.47-11-18-3.54-.93-6.75,2.9-9,6.74s-4.58,8.31-8.1,9.37c-6.89,2.1-13.5-10.16-20-6.41-5.52,3.19-5.76,15.41-11.33,18.4-6.74,3.6-13-9.84-20.13-8.12-9.63,2.32-11.44,33.69-24.13,25.13a12.64,12.64,0,0,1-2.2-1.93C160.18,1606.89,202.54,1654.78,280.46,1632.56Z"/><path id="Path_208" data-name="Path 208" class="cls-2" d="M300.14,1562.34a224,224,0,0,0,4.53,45.1,209.07,209.07,0,0,0,7.72,27.81,503.09,503.09,0,0,0,128.05,16.66v-40c-2.33-2.31-4.19-5.46-6.17-8.3-2.62-3.75-6-7.33-9.93-7.27-5.75.1-10.36,7.84-16.06,7-8.33-1.28-9.66-18.66-17.84-21-8.45-2.44-15.42,13.53-23.73,10.42-4.64-1.73-6.65-8.48-8.12-14.34s-3.81-12.55-8.55-13.75c-8-2-12.9,13.16-21,13.62-6.11.34-10.14-7.53-14.68-12.75a23.4,23.4,0,0,0-14.16-8C300.16,1559.09,300.14,1560.71,300.14,1562.34Z"/></g><path id="HillBackground" class="cls-2" d="M1090.23,1623.49s-307.45,136-565.05,10.92c-98.91-48-206.13-29.81-302.53-25.28-152.46,7.18-274.48,25.28-274.48,25.28l12.28,76.6s1015.11,21.1,1120.53,26.87,9.24,13.76,9.24,13.76Z"/><path id="BigHill" class="cls-3" d="M1087.66,1714S785,1743.22,527.39,1633.68s-577,0-577,0l7.27,70.76c-15.12,24-37.93,68.69-33.76,123.73,0,0,3.14,41.28,26,80.86,79.39,137.62,1029.93,301.59,1151.43,0,23.48-58.28,10.85-121.15-8.79-172.72Z"/><g id="Pig"><path id="Path_209" data-name="Path 209" class="cls-4" d="M42.94,1597.37l-1.81,0a.37.37,0,0,0-.37.35.36.36,0,0,0,.36.35l1.8,0a1.46,1.46,0,1,1-.05,2.91l-1.22,0a7.4,7.4,0,0,1,.66.71h.55a2.15,2.15,0,1,0,.08-4.3Z"/><path id="Path_210" data-name="Path 210" class="cls-4" d="M28,1614.29l.06-3.42a6.52,6.52,0,0,1-2.17-1.49l-.08,4.87Z"/><path id="Path_211" data-name="Path 211" class="cls-4" d="M26.8,1614.27l.07-4.06a6,6,0,0,1-1-.83l-.08,4.87Z"/><path id="Path_214" data-name="Path 214" class="cls-4" d="M29.13,1611.27a.48.48,0,0,1,.38.47l0,2.57,2.19,0,0-2.42a.48.48,0,0,1,.5-.46l4.89.08a6.69,6.69,0,0,0,2.62-.48.5.5,0,0,1,.65.26.53.53,0,0,1,0,.18l0,3,2.19,0,.1-5.45a1.33,1.33,0,0,1,.19-.67,6,6,0,0,0,.84-2.94,6.34,6.34,0,0,0-6.37-6.29l-5.68-.1,0,1.53h0a4.93,4.93,0,0,1,.39,1.52.7.7,0,0,0,.19.43,2.49,2.49,0,0,1,.71,1.71c0,2-2.92,3.57-6.42,3.51a10.35,10.35,0,0,1-1.84-.19A6.48,6.48,0,0,0,29.13,1611.27Z"/><path id="Path_215" data-name="Path 215" class="cls-4" d="M29.53,1611.74l0,1.44,1,0,0-2.39a.49.49,0,0,0-.38-.47,6.55,6.55,0,0,1-3.87-2.54,9.93,9.93,0,0,1-1.63-.19,6.44,6.44,0,0,0,4.49,3.66A.48.48,0,0,1,29.53,1611.74Z"/><path id="Path_216" data-name="Path 216" class="cls-4" d="M30.3,1598.81a5.19,5.19,0,0,1,1.36,1.92l.06-3.44a.48.48,0,0,0-.49-.48h-.05a4.16,4.16,0,0,0-2.44,1A5.43,5.43,0,0,1,30.3,1598.81Z"/><path id="Path_217" data-name="Path 217" class="cls-4" d="M29.67,1598.32a4.17,4.17,0,0,1,2-.81v-.22a.48.48,0,0,0-.49-.48h-.05a4.16,4.16,0,0,0-2.44,1A5.55,5.55,0,0,1,29.67,1598.32Z"/><path id="Path_218" data-name="Path 218" class="cls-4" d="M23,1598.68a5.58,5.58,0,0,1,1.6-.93,4.19,4.19,0,0,0-2.41-1.1.49.49,0,0,0-.55.42.43.43,0,0,0,0,0l-.06,3.44A5.29,5.29,0,0,1,23,1598.68Z"/><path id="Path_219" data-name="Path 219" class="cls-4" d="M22.59,1599.06l0-1.93a.52.52,0,0,1,.19-.36,6.18,6.18,0,0,0-.62-.12.49.49,0,0,0-.55.42.43.43,0,0,0,0,0l-.06,3.44A5.31,5.31,0,0,1,22.59,1599.06Z"/><path id="Path_220" data-name="Path 220" class="cls-4" d="M32.7,1602.85a.69.69,0,0,1-.17-.41c-.24-2.64-3-5-5.85-5.09a5.41,5.41,0,0,0-5.55,4.6.67.67,0,0,1-.18.4,2.5,2.5,0,0,0-.79,1.72c0,2,3.26,4,6.8,4.08s6.44-1.53,6.47-3.56A2.52,2.52,0,0,0,32.7,1602.85Z"/><path id="Path_221" data-name="Path 221" class="cls-4" d="M21.64,1604.09a2.49,2.49,0,0,1,.79-1.71.67.67,0,0,0,.18-.4,5.37,5.37,0,0,1,4.81-4.57,4.52,4.52,0,0,0-.74-.06,5.41,5.41,0,0,0-5.55,4.6.67.67,0,0,1-.18.4,2.5,2.5,0,0,0-.79,1.72c0,2,2.8,3.71,6.34,3.78.25,0,.5,0,.74,0-3.18-.26-5.63-1.86-5.6-3.74Z"/><path id="Path_222" data-name="Path 222" class="cls-4" d="M27.64,1605.92l-2.22,0a1.35,1.35,0,0,1-1.35-1.33v-.16a1.34,1.34,0,0,1,1.38-1.28l2.23,0a1.34,1.34,0,0,1,1.34,1.33v.16A1.36,1.36,0,0,1,27.64,1605.92Z"/><path id="Path_223" data-name="Path 223" class="cls-4" d="M25.06,1604.55v-.12a1.35,1.35,0,0,1,1.4-1.3l-1,0a1.37,1.37,0,0,0-1.41,1.3v.12a1.35,1.35,0,0,0,1.36,1.35l1,0A1.37,1.37,0,0,1,25.06,1604.55Z"/><path id="Path_224" data-name="Path 224" class="cls-4" d="M25.7,1605a.36.36,0,0,1-.35-.36v-.42a.37.37,0,0,1,.37-.35.36.36,0,0,1,.36.36v.43A.36.36,0,0,1,25.7,1605Z"/><path id="Path_225" data-name="Path 225" class="cls-4" d="M27.37,1605.07a.36.36,0,0,1-.35-.36v-.42a.37.37,0,0,1,.37-.35.36.36,0,0,1,.36.36v.42A.36.36,0,0,1,27.37,1605.07Z"/><path id="Path_226" data-name="Path 226" class="cls-4" d="M24.75,1602.07a.35.35,0,0,1-.35-.35v-.8a.37.37,0,0,1,.37-.35.37.37,0,0,1,.36.36l0,.8A.35.35,0,0,1,24.75,1602.07Z"/><path id="Path_227" data-name="Path 227" class="cls-4" d="M28.43,1602.14a.36.36,0,0,1-.36-.36l0-.8a.35.35,0,0,1,.37-.34.35.35,0,0,1,.35.35v.8A.37.37,0,0,1,28.43,1602.14Z"/><path id="Path_228" data-name="Path 228" class="cls-4" d="M25.83,1613.12l2.19,0,0,1.13-2.19,0Z"/><path id="Path_229" data-name="Path 229" class="cls-4" d="M25.83,1613.12l1,0,0,1.13-1,0Z"/><path id="Path_232" data-name="Path 232" class="cls-4" d="M29.5,1613.18l2.2,0,0,1.13-2.2,0Z"/><path id="Path_233" data-name="Path 233" class="cls-4" d="M29.5,1613.18l1,0,0,1.13-1,0Z"/></g><g id="Pig-2"><path id="Path_209-2" data-name="Path 209-2" class="cls-4" d="M144.73,1580.79h1.33a.27.27,0,1,1,0,.54h-1.33a1.13,1.13,0,0,0,0,2.26h.91a5.08,5.08,0,0,0-.5.54h-.41a1.67,1.67,0,1,1,0-3.34Z"/><path id="Path_210-2" data-name="Path 210-2" class="cls-4" d="M155.59,1594.14v-2.66a4.87,4.87,0,0,0,1.63-1.13v3.79Z"/><path id="Path_211-2" data-name="Path 211-2" class="cls-4" d="M156.49,1594.14V1591a4.86,4.86,0,0,0,.73-.63v3.79Z"/><path id="Path_214-2" data-name="Path 214-2" class="cls-4" d="M154.8,1591.78a.37.37,0,0,0-.3.35v2h-1.62v-1.88a.37.37,0,0,0-.37-.37h-3.63a4.79,4.79,0,0,1-1.94-.41.36.36,0,0,0-.48.18.28.28,0,0,0,0,.15v2.33H144.8v-4.24a1.07,1.07,0,0,0-.14-.52,4.88,4.88,0,0,1-.58-2.3,4.82,4.82,0,0,1,4.8-4.81h4.22v1.2h0a4,4,0,0,0-.3,1.18.53.53,0,0,1-.15.33,2,2,0,0,0-.55,1.32c0,1.55,2.12,2.81,4.72,2.81a7.73,7.73,0,0,0,1.36-.12A4.86,4.86,0,0,1,154.8,1591.78Z"/><path id="Path_215-2" data-name="Path 215-2" class="cls-4" d="M154.49,1592.13v1.13h-.74v-1.86a.37.37,0,0,1,.29-.36,4.81,4.81,0,0,0,2.9-1.93,6.23,6.23,0,0,0,1.22-.12,4.86,4.86,0,0,1-3.38,2.79A.35.35,0,0,0,154.49,1592.13Z"/><path id="Path_216-2" data-name="Path 216-2" class="cls-4" d="M154.08,1582.07a4.12,4.12,0,0,0-1,1.48v-2.67a.37.37,0,0,1,.37-.37h0a3,3,0,0,1,1.8.82A4.27,4.27,0,0,0,154.08,1582.07Z"/><path id="Path_217-2" data-name="Path 217-2" class="cls-4" d="M154.56,1581.7a3.12,3.12,0,0,0-1.51-.66v-.16a.37.37,0,0,1,.37-.37h0a3,3,0,0,1,1.8.82A3.6,3.6,0,0,0,154.56,1581.7Z"/><path id="Path_218-2" data-name="Path 218-2" class="cls-4" d="M159.5,1582.07a4.07,4.07,0,0,0-1.17-.74,3,3,0,0,1,1.8-.82.38.38,0,0,1,.41.33v2.71A4,4,0,0,0,159.5,1582.07Z"/><path id="Path_219-2" data-name="Path 219-2" class="cls-4" d="M159.8,1582.38v-1.5a.33.33,0,0,0-.13-.28,3.73,3.73,0,0,1,.46-.09.38.38,0,0,1,.41.33v2.71A3.87,3.87,0,0,0,159.8,1582.38Z"/><path id="Path_220-2" data-name="Path 220-2" class="cls-4" d="M152,1585.16a.54.54,0,0,0,.13-.31,4.87,4.87,0,0,1,4.63-3.86,4.08,4.08,0,0,1,4.06,3.65.54.54,0,0,0,.13.31,2,2,0,0,1,.56,1.35c0,1.57-2.69,3.06-5.32,3.06s-4.76-1.28-4.76-2.85A2.06,2.06,0,0,1,152,1585.16Z"/><path id="Path_221-2" data-name="Path 221-2" class="cls-4" d="M160.44,1586.3a2,2,0,0,0-.56-1.34.61.61,0,0,1-.13-.32,4.08,4.08,0,0,0-3.51-3.61,4.07,4.07,0,0,1,4.59,3.49s0,.08,0,.12a.54.54,0,0,0,.13.31,2.09,2.09,0,0,1,.57,1.35c0,1.57-2.13,2.85-4.76,2.85l-.55,0c2.37-.16,4.2-1.37,4.2-2.83Z"/><path id="Path_222-2" data-name="Path 222-2" class="cls-4" d="M156,1587.63h1.65a1,1,0,0,0,1-1v-.12a1,1,0,0,0-1-1H156a1,1,0,0,0-1,1v.12A1,1,0,0,0,156,1587.63Z"/><path id="Path_223-2" data-name="Path 223-2" class="cls-4" d="M157.9,1586.61v-.1a1,1,0,0,0-1-1h.73a1,1,0,0,1,1,1h0v.1a1,1,0,0,1-1,1h-.73a1,1,0,0,0,1-1Z"/><path id="Path_224-2" data-name="Path 224-2" class="cls-4" d="M157.42,1587a.27.27,0,0,0,.27-.27h0v-.33a.28.28,0,0,0-.27-.28.29.29,0,0,0-.28.28v.33A.28.28,0,0,0,157.42,1587Z"/><path id="Path_225-2" data-name="Path 225-2" class="cls-4" d="M156.17,1587a.28.28,0,0,0,.28-.27h0v-.33a.28.28,0,0,0-.27-.28.29.29,0,0,0-.28.28v.33A.28.28,0,0,0,156.17,1587Z"/><path id="Path_226-2" data-name="Path 226-2" class="cls-4" d="M158.16,1584.69a.27.27,0,0,0,.27-.27h0v-.63a.27.27,0,0,0-.54,0v.63a.28.28,0,0,0,.27.27Z"/><path id="Path_227-2" data-name="Path 227-2" class="cls-4" d="M155.43,1584.69a.27.27,0,0,0,.27-.27h0v-.63a.27.27,0,1,0-.54,0v.63a.28.28,0,0,0,.27.27Z"/><path id="Path_228-2" data-name="Path 228-2" class="cls-4" d="M157.22,1593.26h-1.63v.88h1.63Z"/><path id="Path_229-2" data-name="Path 229-2" class="cls-4" d="M157.22,1593.26h-.73v.88h.73Z"/><path id="Path_232-2" data-name="Path 232-2" class="cls-4" d="M154.49,1593.26h-1.63v.88h1.63Z"/><path id="Path_233-2" data-name="Path 233-2" class="cls-4" d="M154.49,1593.26h-.73v.88h.73Z"/></g><g id="Tractor"><path id="Path_251" data-name="Path 251" class="cls-4" d="M520.87,1618.61l8.11,3.18a2.15,2.15,0,0,1,1.23,2.77h0l-2.1,5.46-9-3.47Z"/><path id="Path_252" data-name="Path 252" class="cls-4" d="M527.92,1628l1.66.64a.9.9,0,0,1,.51,1.15.89.89,0,0,1-1.15.51h0l-.83-.32Z"/><path id="Path_253" data-name="Path 253" class="cls-4" d="M526.17,1618.81a.45.45,0,0,1-.25-.58h0l1-2.49a.42.42,0,0,1,.31-.27l1.57-.35a.43.43,0,0,1,.54.31.46.46,0,0,1-.31.55h0l-1.33.3-.87,2.27A.46.46,0,0,1,526.17,1618.81Z"/><path id="Path_254" data-name="Path 254" class="cls-4" d="M511.71,1618l-.59-2.61,5.4,2.07,1,8.49-2.28-.88Z"/><path id="Path_255" data-name="Path 255" class="cls-4" d="M510.93,1613.42l4.5-6.68,8.22,3.19-.75,9.52-.83-.32-2.87,7.47L518,1616.12Z"/><path id="Path_256" data-name="Path 256" class="cls-4" d="M525.5,1618.07l1.66.64-3.67,9.54-1.66-.64Z"/><circle id="Ellipse_23" data-name="Ellipse 23" class="cls-4" cx="510.67" cy="1622.14" r="5.1"/><circle id="Ellipse_24" data-name="Ellipse 24" class="cls-4" cx="510.67" cy="1622.14" r="2.45"/><circle id="Ellipse_25" data-name="Ellipse 25" class="cls-4" cx="510.67" cy="1622.14" r="1.99"/><circle id="Ellipse_26" data-name="Ellipse 26" class="cls-4" cx="524.7" cy="1629.13" r="3.61"/><circle id="Ellipse_27" data-name="Ellipse 27" class="cls-4" cx="524.66" cy="1629.12" r="1.38"/><path id="Path_276" data-name="Path 276" class="cls-4" d="M516.25,1605.47l7.67,3a.76.76,0,0,1,.45,1h0l-.36.94-9.12-3.51.36-.93A.76.76,0,0,1,516.25,1605.47Z"/><path id="Path_280" data-name="Path 280" class="cls-4" d="M520,1619.78l2.49,1-.32.83-2.49-1Z"/><path id="Path_283" data-name="Path 283" class="cls-4" d="M507.9,1615.11l2.07.8,1.15-.51,5.15,2.37,1,8.09,2.18.83-.83-10.78-7.73-2.49Z"/><path id="Path_284" data-name="Path 284" class="cls-4" d="M526.23,1617.4l.83.32-.32.83-.83-.32Z"/></g><g id="HayBalls"><path id="Path_172" data-name="Path 172" class="cls-5" d="M123.11,1753.82a16.17,16.17,0,0,1-10.89,4.2H97a16.1,16.1,0,0,1-10.8-4.12,27.45,27.45,0,0,1,18.43-47.8c.43,0,.87,0,1.3,0a27.45,27.45,0,0,1,17.22,47.69Z"/><path id="Path_173" data-name="Path 173" class="cls-6" d="M123.11,1753.82a16.17,16.17,0,0,1-10.89,4.2h-7.63V1706.1c.43,0,.87,0,1.3,0a27.45,27.45,0,0,1,17.22,47.69Z"/><circle id="Ellipse_17" data-name="Ellipse 17" class="cls-1" cx="104.47" cy="1733.78" r="17.36"/><path id="Path_174" data-name="Path 174" class="cls-2" d="M122,1733.56a17.36,17.36,0,0,1-17.36,17.36h0V1716.4a17.2,17.2,0,0,1,17.38,17Z"/><path id="Path_175" data-name="Path 175" class="cls-5" d="M112.52,1733.56a7.93,7.93,0,1,1-7.93-7.93,7.93,7.93,0,0,1,7.93,7.93Z"/><path id="Path_176" data-name="Path 176" class="cls-6" d="M112.52,1733.56a7.93,7.93,0,0,1-7.93,7.92h0v-15.85a7.93,7.93,0,0,1,7.93,7.93Z"/></g><g id="HayBalls-2" data-name="HayBalls"><path id="Path_172-2" data-name="Path 172" class="cls-5" d="M241.64,1972.41a41.38,41.38,0,0,1-27.91,10.75H174.59a41.15,41.15,0,0,1-27.67-10.55,70.37,70.37,0,0,1,47.24-122.54c1.11,0,2.22,0,3.35.08a70.37,70.37,0,0,1,44.13,122.26Z"/><path id="Path_173-2" data-name="Path 173" class="cls-6" d="M241.64,1972.41a41.38,41.38,0,0,1-27.91,10.75H194.16V1850.07c1.11,0,2.22,0,3.35.08a70.37,70.37,0,0,1,44.13,122.26Z"/><circle id="Ellipse_17-2" data-name="Ellipse 17" class="cls-1" cx="193.85" cy="1921.02" r="44.5"/><path id="Path_174-2" data-name="Path 174" class="cls-2" d="M238.68,1920.46A44.5,44.5,0,0,1,194.19,1965h0v-88.48a44.07,44.07,0,0,1,44.53,43.59Z"/><path id="Path_175-2" data-name="Path 175" class="cls-5" d="M214.48,1920.46a20.32,20.32,0,1,1-20.32-20.31,20.31,20.31,0,0,1,20.32,20.31Z"/><path id="Path_176-2" data-name="Path 176" class="cls-6" d="M214.48,1920.46a20.31,20.31,0,0,1-20.31,20.31h0v-40.62a20.31,20.31,0,0,1,20.31,20.31Z"/></g><g id="HayBalls-2-2" data-name="HayBalls-2"><path id="Path_172-2-2" data-name="Path 172-2" class="cls-5" d="M789.92,1724.21a9.88,9.88,0,0,1-6.7,2.58h-9.4a9.87,9.87,0,0,1-6.65-2.53,16.91,16.91,0,0,1,11.35-29.44l.8,0a16.9,16.9,0,0,1,10.6,29.37Z"/><path id="Path_173-2-2" data-name="Path 173-2" class="cls-6" d="M789.92,1724.21a9.88,9.88,0,0,1-6.7,2.58h-4.7v-32l.8,0a16.9,16.9,0,0,1,10.6,29.37Z"/><circle id="Ellipse_17-2-2" data-name="Ellipse 17-2" class="cls-1" cx="778.44" cy="1711.87" r="10.69"/><path id="Path_174-2-2" data-name="Path 174-2" class="cls-2" d="M789.21,1711.73a10.69,10.69,0,0,1-10.69,10.69h0v-21.25a10.59,10.59,0,0,1,10.7,10.47Z"/><path id="Path_175-2-2" data-name="Path 175-2" class="cls-5" d="M783.4,1711.73a4.88,4.88,0,1,1-4.88-4.88,4.88,4.88,0,0,1,4.88,4.88Z"/><path id="Path_176-2-2" data-name="Path 176-2" class="cls-6" d="M783.4,1711.73a4.88,4.88,0,0,1-4.88,4.88h0v-9.76A4.89,4.89,0,0,1,783.4,1711.73Z"/></g><path id="Path_540" data-name="Path 540" class="cls-2" d="M525.44,1589.93v0a2.22,2.22,0,0,0-2.23-2.22,2.1,2.1,0,0,0-.82.16,2.89,2.89,0,0,0-5.36.86l-.23,0c-.77,0-.83,1.24-.83,1.24s-1.51,1.67,4.14,1.4,5.33-1.4,5.33-1.4Z"/><path id="Path_541" data-name="Path 541" class="cls-2" d="M534.83,1600.37v0a1.61,1.61,0,0,0-1.61-1.61,1.53,1.53,0,0,0-.6.12,2.09,2.09,0,0,0-3.87.62h-.17c-.55,0-.59.9-.59.9s-1.1,1.2,3,1,3.85-1,3.85-1Z"/><path id="Path_542" data-name="Path 542" class="cls-2" d="M536,1610.75h0c.19-.66-.6-1.39-2.21-1.41-1.39-.15-2.5.89-1.55,1.42s-.6.66,1.65.55,2.11-.55,2.11-.55Z"/><g id="Cloud"><path id="Path_205" data-name="Path 205" class="cls-7" d="M737.28,1596.61c0-.06,0-.11,0-.16a17.91,17.91,0,0,1,24.56-16.63,23.23,23.23,0,0,1,43.1,6.92,13.07,13.07,0,0,1,14.57,9.87Z"/><path id="Path_206" data-name="Path 206" class="cls-2" d="M754.75,1596.61v-.09a10.3,10.3,0,0,1,10.3-10.3,10.17,10.17,0,0,1,3.81.74,13.36,13.36,0,0,1,24.79,4,7.71,7.71,0,0,1,1.07-.08,7.52,7.52,0,0,1,7.31,5.75Z"/><g id="Cloud-2" data-name="Cloud"><path id="Path_205-2" data-name="Path 205" class="cls-7" d="M110.54,1337.13c0-.05,0-.1,0-.16a17.9,17.9,0,0,1,24.55-16.62,23.23,23.23,0,0,1,43.11,6.92,13.06,13.06,0,0,1,14.57,9.86Z"/><path id="Path_206-2" data-name="Path 206" class="cls-2" d="M128,1337.13V1337a10.3,10.3,0,0,1,14.11-9.56,13.36,13.36,0,0,1,24.79,4,9.45,9.45,0,0,1,1.07-.08,7.54,7.54,0,0,1,7.31,5.76H128Z"/></g><g id="Cloud-3" data-name="Cloud"><path id="Path_205-3" data-name="Path 205" class="cls-7" d="M945.06,1314.46c0-.06,0-.11,0-.17a17.9,17.9,0,0,1,24.55-16.62,23.23,23.23,0,0,1,43.11,6.92,13.06,13.06,0,0,1,14.57,9.87Z"/><path id="Path_206-3" data-name="Path 206" class="cls-2" d="M962.53,1314.46v-.1a10.29,10.29,0,0,1,10.29-10.29,10.19,10.19,0,0,1,3.82.74,13.35,13.35,0,0,1,24.79,4,6.35,6.35,0,0,1,1.07-.08,7.52,7.52,0,0,1,7.31,5.75Z"/></g></g><g id="Trees"><g id="Tree"><g id="Group_47" data-name="Group 47"><path id="Path_132" data-name="Path 132" class="cls-6" d="M102.23,1634.77H96.81a2.27,2.27,0,0,1-2.27-2.27.41.41,0,0,1,0-.11l.6-12.51,1.15-23.83h6.45l1.15,23.83.6,12.51a2.27,2.27,0,0,1-2.16,2.38Z"/><path id="Path_133" data-name="Path 133" class="cls-2" d="M102.75,1596.05l1.75,36.34a2.28,2.28,0,0,1-2.16,2.38H99.52v-38.72Z"/></g><path id="Path_136" data-name="Path 136" class="cls-6" d="M104.44,1613.12H94.6c-11.39,0-18.68-12.32-13-22.19l.12-.22a168.59,168.59,0,0,0,15.82-36.28,2,2,0,0,1,3.92,0,169.41,169.41,0,0,0,15.83,36.29l.12.22C123.12,1600.8,115.84,1613.12,104.44,1613.12Z"/><path id="Path_137" data-name="Path 137" class="cls-2" d="M104.44,1613.12H97.1c-5.59,0-9.18-12.32-6.38-22.19l.07-.22a282.52,282.52,0,0,0,7.77-36.28c.15-1,.55-1.46,1-1.46a2,2,0,0,1,2,1.45,168.92,168.92,0,0,0,15.83,36.29l.12.22C123.12,1600.8,115.84,1613.12,104.44,1613.12Z"/></g><g id="Tree-2"><g id="Group_47-2" data-name="Group 47-2"><path id="Path_132-2" data-name="Path 132-2" class="cls-6" d="M33.14,1719.11H26.48a2.79,2.79,0,0,1-2.79-2.79.66.66,0,0,1,0-.14l.73-15.36,1.41-29.28h7.93l1.42,29.28.73,15.36a2.79,2.79,0,0,1-2.65,2.93Z"/><path id="Path_133-2" data-name="Path 133-2" class="cls-2" d="M33.78,1671.54l2.14,44.64a2.79,2.79,0,0,1-2.65,2.93H29.81v-47.57Z"/></g><path id="Path_136-2" data-name="Path 136-2" class="cls-6" d="M35.85,1692.52H23.76c-14,0-22.94-15.15-16-27.27L8,1665A207.83,207.83,0,0,0,27.4,1620.4a2.51,2.51,0,0,1,4.81,0A207.87,207.87,0,0,0,51.66,1665l.14.27C58.8,1677.37,49.85,1692.52,35.85,1692.52Z"/><path id="Path_137-2" data-name="Path 137-2" class="cls-2" d="M35.85,1692.52h-9c-6.88,0-11.28-15.15-7.84-27.27l.08-.27a349.43,349.43,0,0,0,9.55-44.58c.18-1.19.67-1.78,1.18-1.78a2.45,2.45,0,0,1,2.4,1.78A207.87,207.87,0,0,0,51.66,1665l.14.27C58.8,1677.37,49.85,1692.52,35.85,1692.52Z"/></g><g id="Tree-3"><g id="Group_47-3" data-name="Group 47-3"><path id="Path_132-3" data-name="Path 132-3" class="cls-6" d="M895.6,1688.17h4.57a1.91,1.91,0,0,0,1.91-1.92v-.09l-.5-10.55-1-20.11h-5.45l-1,20.11-.51,10.55a1.91,1.91,0,0,0,1.82,2Z"/><path id="Path_133-3" data-name="Path 133-3" class="cls-2" d="M895.16,1655.5l-1.48,30.66a1.91,1.91,0,0,0,1.83,2h2.37V1655.5Z"/></g><path id="Path_136-3" data-name="Path 136-3" class="cls-6" d="M893.7,1669.9h8.37c9.68,0,15.87-10.4,11-18.72l-.1-.18a141.61,141.61,0,0,1-13.45-30.62,1.74,1.74,0,0,0-2.18-1.14,1.71,1.71,0,0,0-1.15,1.14A142.32,142.32,0,0,1,882.77,1651l-.1.18C877.83,1659.5,884,1669.9,893.7,1669.9Z"/><path id="Path_137-3" data-name="Path 137-3" class="cls-2" d="M893.61,1669.9h6.19c4.72,0,7.75-10.4,5.39-18.72a1.21,1.21,0,0,1-.05-.18,239.07,239.07,0,0,1-6.57-30.62c-.12-.82-.46-1.22-.81-1.22a1.67,1.67,0,0,0-1.64,1.22A143.22,143.22,0,0,1,882.76,1651l-.1.18A12.54,12.54,0,0,0,893.61,1669.9Z"/></g><g id="Tree-4"><g id="Group_47-4" data-name="Group 47-4"><path id="Path_132-4" data-name="Path 132-4" class="cls-6" d="M835.25,1704.07h4.86a2,2,0,0,0,2-2v-.1l-.54-11.24-1-21.4h-5.8l-1,21.4-.54,11.24a2,2,0,0,0,1.94,2.13Z"/><path id="Path_133-4" data-name="Path 133-4" class="cls-2" d="M834.78,1669.29l-1.57,32.64a2,2,0,0,0,1.94,2.14h2.53v-34.78Z"/></g><path id="Path_136-4" data-name="Path 136-4" class="cls-6" d="M833.23,1684.62h8.9c10.31,0,16.9-11.07,11.75-19.93l-.11-.2a151,151,0,0,1-14.32-32.59,1.86,1.86,0,0,0-3.54,0,151.55,151.55,0,0,1-14.32,32.6l-.11.2C816.33,1673.55,822.92,1684.62,833.23,1684.62Z"/><path id="Path_137-4" data-name="Path 137-4" class="cls-2" d="M833.13,1684.62h6.59c5,0,8.25-11.07,5.73-19.93l-.05-.2a255.43,255.43,0,0,1-7-32.59c-.13-.88-.49-1.31-.86-1.31a1.79,1.79,0,0,0-1.75,1.3,152,152,0,0,1-14.23,32.6l-.1.2A13.35,13.35,0,0,0,833.13,1684.62Z"/></g><g id="Tree-5"><g id="Group_47-5" data-name="Group 47-5"><path id="Path_132-5" data-name="Path 132-5" class="cls-6" d="M194.21,1601.09h-4.12a1.72,1.72,0,0,1-1.72-1.73v-.08l.46-9.5.87-18.1h4.9l.87,18.1.46,9.5a1.74,1.74,0,0,1-1.64,1.81Z"/><path id="Path_133-5" data-name="Path 133-5" class="cls-2" d="M194.6,1571.68l1.33,27.6a1.73,1.73,0,0,1-1.64,1.81h-2.14v-29.41Z"/></g><path id="Path_136-5" data-name="Path 136-5" class="cls-6" d="M195.89,1584.65h-7.48a11.3,11.3,0,0,1-9.86-16.86l.09-.17a128.29,128.29,0,0,0,12-27.55,1.55,1.55,0,0,1,3,0,128.48,128.48,0,0,0,12,27.57l.09.16A11.3,11.3,0,0,1,195.89,1584.65Z"/><path id="Path_137-5" data-name="Path 137-5" class="cls-2" d="M195.89,1584.65h-5.58c-4.25,0-7-9.36-4.84-16.86l0-.17a214.06,214.06,0,0,0,5.91-27.55c.11-.74.42-1.1.73-1.1a1.51,1.51,0,0,1,1.48,1.09,128.48,128.48,0,0,0,12,27.57l.09.16A11.3,11.3,0,0,1,195.89,1584.65Z"/></g></g><g id="Barn"><g id="Group_53" data-name="Group 53"><g id="Group_51" data-name="Group 51"><path id="Path_146" data-name="Path 146" class="cls-1" d="M324.59,1564.69v47.37H253.18v-47.37l4.08-7.12,5.21-9.1,2.69-4.7,7.75-4.41,16-9.11,16,9.11,7.74,4.41,2.69,4.7,5.21,9.1Z"/><g id="Group_50" data-name="Group 50"><path id="Path_147" data-name="Path 147" class="cls-2" d="M324.59,1564.69l-12-20.92-23.72-13.51v81.8h35.7Z"/></g></g><g id="Group_52" data-name="Group 52"><path id="Path_156" data-name="Path 156" class="cls-8" d="M299.85,1591.11v21H277.92v-21a5.51,5.51,0,0,1,5.51-5.52h10.92A5.5,5.5,0,0,1,299.85,1591.11Z"/><path id="Path_157" data-name="Path 157" class="cls-9" d="M299.86,1591.11v21h-11v-26.47h5.46A5.52,5.52,0,0,1,299.86,1591.11Z"/></g><path id="Path_158" data-name="Path 158" class="cls-8" d="M277.92,1547.39h21.93v15.2H277.92Z"/><path id="Path_159" data-name="Path 159" class="cls-9" d="M288.89,1547.39h11v15.2h-11Z"/><path id="Path_160" data-name="Path 160" class="cls-8" d="M275.39,1545.23h5.06v19.52h-5.06Z"/><path id="Path_161" data-name="Path 161" class="cls-9" d="M297.33,1545.23h5.06v19.52h-5.07Z"/><path id="Path_162" data-name="Path 162" class="cls-8" d="M288.89,1530.26h0l-23.71,13.51-9.57,16.71-2.41,4.21h-9.66l4.8-8.38,9.57-16.7,1.14-2,2-1.13L284.75,1523l4.13-2.35h0Z"/><path id="Path_163" data-name="Path 163" class="cls-8" d="M246.73,1603.09h31.19v9H246.73Z"/><path id="Path_164" data-name="Path 164" class="cls-9" d="M299.86,1603.09h31.19v9H299.86Z"/></g><path id="Path_207" data-name="Path 207" class="cls-9" d="M334.24,1564.52h-9.77l-2.45-4.2-9.69-16.64-23.45-13.42h0v-9.6h0l27.65,15.77,2,1.13,1.16,2,9.68,16.64Z"/></g><path id="Field" class="cls-2" d="M1057.25,1798.23c-274.49-29-412.94-79.38-565.14-129.64-54.71-18.06-184.59-21.68-211.71,27.3-40.94,73.95,166,258.48,215.37,301.58l617.39-34c35.57-51.83,73.44-119.17,50.22-151.11C1146.54,1789.2,1105.76,1803.35,1057.25,1798.23Z"/><g id="Field-2"><g id="Crop"><g id="Crop-2"><path id="Path_534" data-name="Path 534" class="cls-6" d="M549.25,1720.8c-25.67,3.52-22.28,21.35-22.28,21.35s7,0,14.1-5.82S549.25,1720.8,549.25,1720.8Z"/><path id="Path_535" data-name="Path 535" class="cls-6" d="M505.05,1719.35c.79,17.75,21.89,22.81,21.89,22.81s.7-1.72,0-5.37c-.37-2.06-2.21-6.13-5.2-9.76C515.87,1719.92,505.05,1719.35,505.05,1719.35Z"/><path id="Path_536" data-name="Path 536" class="cls-10" d="M527.05,1740.55c.18,7.32.19,23.17.19,23.17"/></g><g id="Crop-2-2" data-name="Crop-2"><path id="Path_534-2" data-name="Path 534" class="cls-6" d="M804.37,1756c-25.67,3.52-22.28,21.35-22.28,21.35s7,0,14.09-5.82S804.37,1756,804.37,1756Z"/><path id="Path_535-2" data-name="Path 535" class="cls-6" d="M760.17,1754.5c.79,17.75,21.89,22.81,21.89,22.81s.7-1.73,0-5.37c-.38-2.06-2.21-6.13-5.21-9.76C771,1755.07,760.17,1754.5,760.17,1754.5Z"/><path id="Path_536-2" data-name="Path 536" class="cls-10" d="M782.17,1775.7c.18,7.32.18,23.17.18,23.17"/></g><g id="Crop-2-3" data-name="Crop-2"><path id="Path_534-3" data-name="Path 534" class="cls-6" d="M639.55,1859.68c-49.56,6.8-43,41.23-43,41.23s13.49.09,27.21-11.24S639.55,1859.68,639.55,1859.68Z"/><path id="Path_535-3" data-name="Path 535" class="cls-6" d="M554.22,1856.87c1.52,34.27,42.25,44.05,42.25,44.05s1.35-3.33,0-10.36c-.72-4-4.26-11.84-10-18.85C575.1,1858,554.22,1856.87,554.22,1856.87Z"/><path id="Path_536-3" data-name="Path 536" class="cls-10" d="M596.69,1897.81c.35,14.14.35,44.72.35,44.72"/></g><g id="Crop-2-4" data-name="Crop-2"><path id="Path_534-4" data-name="Path 534" class="cls-6" d="M931.17,1840.31c-30.72,4.22-26.66,25.56-26.66,25.56s8.36.05,16.87-7S931.17,1840.31,931.17,1840.31Z"/><path id="Path_535-4" data-name="Path 535" class="cls-6" d="M878.28,1838.57c.94,21.25,26.19,27.3,26.19,27.3s.84-2.06,0-6.42c-.44-2.47-2.64-7.34-6.22-11.68C891.22,1839.26,878.28,1838.57,878.28,1838.57Z"/><path id="Path_536-4" data-name="Path 536" class="cls-10" d="M904.61,1864c.21,8.76.22,27.72.22,27.72"/></g><g id="Crop-3"><path id="Path_534-2-2" data-name="Path 534-2" class="cls-6" d="M393.27,1706.14c-17.91-.38-17.52,12.16-17.52,12.16a16.54,16.54,0,0,0,10.25-2.45C391.48,1712.62,393.27,1706.14,393.27,1706.14Z"/><path id="Path_535-2-2" data-name="Path 535-2" class="cls-6" d="M362.42,1703.39c.51,11.6,14.27,14.91,14.27,14.91a6.89,6.89,0,0,0,0-3.51,16.61,16.61,0,0,0-3.39-6.38C369.47,1703.77,362.42,1703.39,362.42,1703.39Z"/><path id="Path_536-2-2" data-name="Path 536-2" class="cls-10" d="M375.86,1716c.55,4.16.95,20.9.95,20.9"/></g><g id="Crop-4"><path id="Path_534-3-2" data-name="Path 534-3" class="cls-6" d="M441.33,1671.68c-13.38,2.32-11.28,11.59-11.28,11.59a12.54,12.54,0,0,0,7.28-3.31C440.94,1676.76,441.33,1671.68,441.33,1671.68Z"/><path id="Path_535-3-2" data-name="Path 535-3" class="cls-6" d="M419.22,1673.56c2.06,8.56,12.77,9,12.77,9a5.22,5.22,0,0,0-.51-2.61,12.61,12.61,0,0,0-3.45-4.26C424.52,1672.82,419.22,1673.56,419.22,1673.56Z"/><path id="Path_536-3-2" data-name="Path 536-3" class="cls-11" d="M430.63,1682.06c.25,3.89,1.31,14.12,1.31,14.12"/></g></g></g><g id="Birds"><path id="Path_537" data-name="Path 537" class="cls-12" d="M632.7,1610.58s12.59-10.59,18.9,4c11.58-9.44,19.24,4.09,19.24,4.09"/><path id="Path_538" data-name="Path 538" class="cls-12" d="M684.24,1597.54s8.79-7.38,13.19,2.8c8.08-6.58,13.43,2.86,13.43,2.86"/><path id="Path_539" data-name="Path 539" class="cls-13" d="M657.26,1578.74s4-2.83,5.54,1.7c3.7-2.52,5.64,1.72,5.64,1.72"/></g><g id="Out_line" data-name="Out line"><path id="Path_543" data-name="Path 543" class="cls-4" d="M930.42,1683.81h-9.94A13.12,13.12,0,0,0,907.7,1694h-.61a.5.5,0,0,0-.42.23l-1,1.52a.49.49,0,0,0,.14.7.37.37,0,0,0,.18.08l1.11.22v5.87a.53.53,0,0,0,.32.48l1,.41a2.52,2.52,0,0,0,3-.9l1.52-2.17,1.21,5.34a.52.52,0,0,0,.5.4h1.52a.51.51,0,0,0,.5-.41l.5-2.34.53,2.35a.52.52,0,0,0,.5.4h1.52a.51.51,0,0,0,.5-.41l1.43-6.69h4.16l1.53,6.7a.51.51,0,0,0,.49.4h1.52a.51.51,0,0,0,.5-.41l.52-2.41.52,2.41a.5.5,0,0,0,.49.41H933a.51.51,0,0,0,.5-.4l1.57-7.21a43.11,43.11,0,0,0,1-9.13A5.59,5.59,0,0,0,930.42,1683.81Z"/><path id="Path_544" data-name="Path 544" class="cls-4" d="M935.39,1688.11a12.52,12.52,0,0,1,2.15,2.86l-.37.71a2,2,0,0,0,.84,2.74l.89.48a.52.52,0,0,0,.69-.22l.47-.89a2,2,0,0,0-.84-2.74l-.71-.38c-.28-.81-3-4.85-4.1-5.12S935.39,1688.11,935.39,1688.11Z"/></g><g id="Out_line-2" data-name="Out line-2"><path id="Path_543-2" data-name="Path 543-2" class="cls-4" d="M862.54,1673.51h7.75a10.09,10.09,0,0,1,10,7.31h.47a.39.39,0,0,1,.33.17l.8,1.09a.36.36,0,0,1,0,.35.39.39,0,0,1-.29.22l-.86.16V1687a.38.38,0,0,1-.25.34l-.82.3a2.06,2.06,0,0,1-2.35-.65l-1.18-1.56-1,3.85a.38.38,0,0,1-.38.28h-1.19a.39.39,0,0,1-.39-.28l-.39-1.7-.41,1.7a.39.39,0,0,1-.39.28h-1.19a.37.37,0,0,1-.38-.28l-1.12-4.84h-3.25l-1.19,4.84a.38.38,0,0,1-.38.28h-1.19a.37.37,0,0,1-.38-.28l-.41-1.75-.4,1.75a.41.41,0,0,1-.39.29h-1.18a.41.41,0,0,1-.39-.29l-1.22-5.2a28.67,28.67,0,0,1-.77-6.59A4.2,4.2,0,0,1,862.54,1673.51Z"/><path id="Path_544-2" data-name="Path 544-2" class="cls-4" d="M858.67,1676.61a9.24,9.24,0,0,0-1.68,2.06l.29.51a1.41,1.41,0,0,1-.54,1.92l-.11.06-.7.35a.42.42,0,0,1-.53-.16l-.38-.64a1.41,1.41,0,0,1,.55-1.92.39.39,0,0,1,.11-.06l.56-.28c.22-.58,2.38-3.49,3.19-3.68S858.67,1676.61,858.67,1676.61Z"/></g></svg>